<?xml version="1.0" encoding="UTF-8" standalone="no"?>
<svg
   xmlns:dc="http://purl.org/dc/elements/1.1/"
   xmlns:cc="http://creativecommons.org/ns#"
   xmlns:rdf="http://www.w3.org/1999/02/22-rdf-syntax-ns#"
   xmlns:svg="http://www.w3.org/2000/svg"
   xmlns="http://www.w3.org/2000/svg"
   xmlns:sodipodi="http://sodipodi.sourceforge.net/DTD/sodipodi-0.dtd"
   xmlns:inkscape="http://www.inkscape.org/namespaces/inkscape"
   aria-hidden="true"
   focusable="false"
   data-prefix="far"
   data-icon="square-check"
   role="img"
   viewBox="0 0 448 512"
   id="svg2985"
   version="1.1"
   inkscape:version="0.48.1 "
   width="100%"
   height="100%"
   sodipodi:docname="square-check.svg">
  <metadata
     id="metadata2993">
    <rdf:RDF>
      <cc:Work
         rdf:about="">
        <dc:format>image/svg+xml</dc:format>
        <dc:type
           rdf:resource="http://purl.org/dc/dcmitype/StillImage" />
      </cc:Work>
    </rdf:RDF>
  </metadata>
  <defs
     id="defs2991" />
  <sodipodi:namedview
     pagecolor="#ffffff"
     bordercolor="#666666"
     borderopacity="1"
     objecttolerance="10"
     gridtolerance="10"
     guidetolerance="10"
     inkscape:pageopacity="0"
     inkscape:pageshadow="2"
     inkscape:window-width="1432"
     inkscape:window-height="1008"
     id="namedview2989"
     showgrid="false"
     inkscape:zoom="0.4921875"
     inkscape:cx="224"
     inkscape:cy="256"
     inkscape:window-x="1588"
     inkscape:window-y="1503"
     inkscape:window-maximized="0"
     inkscape:current-layer="svg2985" />
  <path
     d="M 402.03175,64.507936 H 50.031746 c -26.51,0 -48,21.49 -48,48.000004 v 352 c 0,26.51 21.49,48 48,48 H 402.03175 c 26.51,0 48,-21.49 48,-48 v -352 c 0,-26.510004 -21.49,-48.000004 -48,-48.000004 z m 0,400.000004 H 50.031746 v -352 H 402.03175 v 352 z m -35.864,-241.724 -172.589,171.204 c -4.705,4.667 -12.303,4.637 -16.97,-0.068 l -90.781004,-91.516 c -4.667,-4.705 -4.637,-12.303 0.069,-16.971 l 22.719004,-22.536 c 4.705,-4.667 12.303,-4.637 16.97,0.069 l 59.792,60.277 141.352,-140.216 c 4.705,-4.667 12.303,-4.637 16.97,0.068 l 22.536,22.718 c 4.667,4.706 4.637,12.304 -0.068,16.971 z"
     id="path2987"
     inkscape:connector-curvature="0"
     style="fill:#f4f4f4" />
</svg>
